<svg xmlns="http://www.w3.org/2000/svg" width="208" height="151.791" viewBox="0 0 208 151.791">
  <g id="Group_29104" data-name="Group 29104" transform="translate(-84 -333.675)">
    <g id="XMLID_3310_" transform="translate(-404.87 74.696)">
      <g id="XMLID_4_" transform="translate(538.87 258.979)">
        <g id="XMLID_79_" transform="translate(44.554 65.395)">
          <rect id="XMLID_93_" width="8.523" height="8.523" transform="translate(0 10.125)"/>
          <rect id="XMLID_85_" width="8.523" height="8.523" fill="#6e9cdf"/>
          <rect id="XMLID_83_" width="8.523" height="8.523" transform="translate(10.125 10.125)" fill="#6e9cdf"/>
          <rect id="XMLID_80_" width="8.523" height="8.523" transform="translate(10.125)"/>
        </g>
        <path id="XMLID_1118_" d="M617.144,314.788h7.113A39.4,39.4,0,0,1,622.6,307.4a29.458,29.458,0,0,1-.214-3.5,38.092,38.092,0,0,1,76.185,0,29.484,29.484,0,0,1-.214,3.5,39.413,39.413,0,0,1-1.66,7.391h7.113a43.5,43.5,0,0,0,1.41-7.391q.177-1.783.177-3.5a44.917,44.917,0,0,0-89.834,0q0,1.719.177,3.5A43.721,43.721,0,0,0,617.144,314.788Z" transform="translate(-606.6 -258.979)"/>
        <path id="XMLID_1121_" d="M642.9,586.793h-25.53l-24.623-24.621-24.623,24.621H542.6a3.734,3.734,0,0,0-3.641,4.526l.016.076a3.719,3.719,0,0,0,3.642,2.929h11.448a113.73,113.73,0,0,0,11.252,17.618c2.24,2.937,4.547,5.744,6.811,8.354,1.723,1.991,3.419,3.869,5.041,5.606,4.721,5.064,8.79,8.936,10.955,10.934l4.631,4.276,4.629-4.276c2.165-2,6.229-5.872,10.95-10.936,1.619-1.737,3.318-3.615,5.043-5.606,2.262-2.612,4.57-5.42,6.813-8.361a113.757,113.757,0,0,0,11.248-17.608h11.452a3.719,3.719,0,0,0,3.642-2.929l.016-.076A3.734,3.734,0,0,0,642.9,586.793Zm-34.368,28.662c-1.716,2-3.41,3.878-5.029,5.62-4.568,4.909-8.54,8.7-10.757,10.748-2.217-2.047-6.192-5.836-10.76-10.745-1.619-1.741-3.313-3.622-5.031-5.617a132.818,132.818,0,0,1-15.177-21.136h9.464l21.505-21.5,21.5,21.5h9.458A132.8,132.8,0,0,1,608.532,615.454Z" transform="translate(-538.87 -526.748)" fill="#6e9cdf"/>
      </g>
    </g>
    <text id="Request_Ride" data-name="Request Ride" transform="translate(188 478.467)" fill="#262628" font-size="24" font-family="AbrilFatface-Regular, Abril Fatface" letter-spacing="0.009em"><tspan x="-103" y="0">Businesses Listing </tspan></text>
  </g>
</svg>
