<svg width="147" height="41" viewBox="0 0 147 41" fill="none" xmlns="http://www.w3.org/2000/svg">
<mask id="mask0_4986_80721" style="mask-type:luminance" maskUnits="userSpaceOnUse" x="0" y="0" width="41" height="41">
<path d="M40.989 0.0605469H0.0117188V40.8995H40.989V0.0605469Z" fill="white"/>
</mask>
<g mask="url(#mask0_4986_80721)">
<path d="M40.989 20.48C40.989 9.20266 31.8159 0.0605469 20.5003 0.0605469C9.18479 0.0605469 0.0117188 9.20266 0.0117188 20.48C0.0117188 31.7574 9.18479 40.8995 20.5003 40.8995C31.8159 40.8995 40.989 31.7574 40.989 20.48Z" fill="url(#paint0_linear_4986_80721)"/>
<path d="M14.4882 12.3774H13.8052C12.5092 12.3774 11.8011 13.1057 11.8011 14.5627V21.5892C11.8011 23.3983 11.188 24.0332 9.74962 24.0332C8.6182 24.0332 7.69887 23.5393 6.96773 22.6466C6.89678 22.5528 5.41211 23.2572 5.41211 24.9966C5.41211 26.8764 7.17944 28.0282 10.4584 28.0282C14.4423 28.0282 16.542 26.0305 16.542 21.6599V14.5627C16.5397 13.1076 15.8325 12.3774 14.4882 12.3774ZM30.3669 15.8083C26.4994 15.8083 23.9297 18.2522 23.9297 21.8963C23.9297 25.633 26.4046 28.0304 30.2955 28.0304C34.1618 28.0304 36.7078 25.633 36.7078 21.9205C36.71 18.2522 34.1865 15.8083 30.3669 15.8083ZM30.3194 24.5731C28.8098 24.5731 27.7728 23.469 27.7728 21.8944C27.7728 20.344 28.8352 19.2391 30.3194 19.2391C31.8037 19.2391 32.8657 20.344 32.8657 21.9183C32.8661 23.4452 31.7817 24.5731 30.3199 24.5731H30.3194ZM20.6621 15.9255H20.1898C19.0351 15.9255 18.1628 16.4655 18.1628 18.1112V25.6308C18.1628 27.2995 19.0121 27.8168 20.2376 27.8168H20.7095C21.8648 27.8168 22.6897 27.2523 22.6897 25.6308V18.1112C22.6897 16.4193 21.8888 15.9255 20.6621 15.9255ZM20.403 10.4746C18.9407 10.4746 18.0213 11.2975 18.0213 12.59C18.0213 13.9051 18.965 14.7276 20.4735 14.7276C21.9355 14.7276 22.8551 13.9051 22.8551 12.59C22.8551 11.2747 21.9119 10.4746 20.403 10.4746Z" fill="white"/>
</g>
<path d="M47.2366 4.69727H50.3089V16.9981H47.2366V4.69727ZM51.9857 7.77695H54.7006V9.02306H54.7364C55.0221 8.53648 55.4033 8.16858 55.8796 7.91936C56.3678 7.67013 56.9274 7.54552 57.5586 7.54552C58.2611 7.54552 58.8447 7.67607 59.309 7.93716C59.7853 8.19825 60.1426 8.58988 60.3808 9.11207C60.6309 9.62238 60.7559 10.2514 60.7559 10.9991V16.9981H57.9694V11.7467C57.9694 11.0465 57.8384 10.5303 57.5764 10.198C57.3263 9.86567 56.9394 9.69952 56.4154 9.69952C55.8796 9.69952 55.4687 9.8716 55.183 10.2158C54.9091 10.5481 54.7721 11.0584 54.7721 11.7467V16.9981H51.9857V7.77695ZM66.1448 17.2474C64.8469 17.2474 63.8109 16.9981 63.0369 16.4997C62.2629 15.9894 61.864 15.2299 61.8401 14.2211H64.5015C64.5253 14.6128 64.6801 14.9095 64.966 15.1112C65.2637 15.3129 65.6685 15.4138 66.1806 15.4138C66.4544 15.4138 66.7045 15.3783 66.9307 15.307C67.157 15.2358 67.3356 15.129 67.4666 14.9866C67.5976 14.8323 67.6631 14.6484 67.6631 14.4347C67.6631 14.233 67.6035 14.0668 67.4844 13.9363C67.3773 13.8057 67.2105 13.6931 66.9843 13.5981C66.77 13.4912 66.508 13.4023 66.1985 13.331L66.002 13.2955L64.8587 13.0284C63.9061 12.8148 63.1976 12.5003 62.7332 12.0849C62.2688 11.6695 62.0366 11.0939 62.0366 10.3582C62.0366 9.72919 62.2093 9.20701 62.5546 8.79164C62.9118 8.36439 63.3941 8.04991 64.0014 7.84815C64.6206 7.6464 65.3172 7.54552 66.0912 7.54552C67.3416 7.54552 68.3121 7.78288 69.0028 8.25759C69.6934 8.72043 70.0625 9.39095 70.1101 10.2692H67.5381C67.5143 9.94874 67.3773 9.70545 67.1272 9.5393C66.8772 9.36128 66.52 9.27229 66.0555 9.27229C65.7935 9.27229 65.5614 9.30195 65.3589 9.36128C65.1684 9.42062 65.0195 9.51557 64.9124 9.64611C64.8052 9.77666 64.7516 9.93688 64.7516 10.1268C64.7516 10.376 64.8648 10.5777 65.091 10.732C65.3172 10.8863 65.6864 11.0169 66.1985 11.1237L67.3416 11.3551C68.0085 11.4975 68.5621 11.6873 69.0028 11.9247C69.4552 12.1502 69.7946 12.4469 70.0209 12.8148C70.259 13.1827 70.3781 13.6277 70.3781 14.15C70.3781 14.862 70.1935 15.4494 69.8244 15.9123C69.4671 16.3632 68.967 16.7014 68.3239 16.927C67.6929 17.1406 66.9665 17.2474 66.1448 17.2474ZM74.7396 17.2474C73.656 17.2474 72.8343 16.9566 72.2746 16.3751C71.7269 15.7817 71.453 14.8916 71.453 13.7049V7.77695H74.2395V12.9572C74.2395 13.6692 74.3645 14.1915 74.6146 14.5238C74.8765 14.8442 75.2695 15.0044 75.7934 15.0044C76.3293 15.0044 76.7342 14.8442 77.008 14.5238C77.2939 14.1915 77.4368 13.6692 77.4368 12.9572V7.77695H80.2232V16.9981H77.5439V15.752H77.5082C77.1986 16.2386 76.8115 16.6125 76.3472 16.8736C75.8828 17.1228 75.3469 17.2474 74.7396 17.2474ZM81.7719 7.77695H84.4512V9.34348H84.4868C84.6894 8.76197 85.0109 8.31693 85.4514 8.00837C85.904 7.6998 86.4279 7.54552 87.0233 7.54552C87.3448 7.54552 87.6128 7.57519 87.827 7.63453V10.109C87.7318 10.0734 87.6128 10.0437 87.4698 10.02C87.3389 9.99621 87.1781 9.98435 86.9875 9.98435C86.4398 9.98435 85.9814 10.103 85.6122 10.3404C85.2549 10.5777 84.9871 10.91 84.8084 11.3373C84.6417 11.7527 84.5583 12.2629 84.5583 12.8682V16.9981H81.7719V7.77695ZM91.2112 17.2474C90.5563 17.2474 89.9907 17.1346 89.5144 16.9092C89.038 16.6718 88.6688 16.3395 88.4069 15.9123C88.1568 15.4731 88.0318 14.951 88.0318 14.3458C88.0318 13.6692 88.2045 13.1115 88.5498 12.6724C88.907 12.2214 89.425 11.8892 90.1037 11.6755C90.7825 11.4619 91.6101 11.3551 92.5865 11.3551H94.0513V10.9634C94.0513 10.5718 94.0036 10.2573 93.9084 10.02C93.8131 9.77073 93.6583 9.58677 93.4439 9.46809C93.2296 9.33755 92.9379 9.27229 92.5687 9.27229C92.1043 9.27229 91.7471 9.36722 91.4969 9.5571C91.2588 9.73512 91.1159 9.99028 91.0683 10.3226H88.4069C88.4784 9.71732 88.6748 9.20701 88.9964 8.79164C89.3297 8.37626 89.8001 8.06177 90.4075 7.84815C91.0147 7.63453 91.7709 7.52772 92.6759 7.52772C93.6166 7.52772 94.3847 7.65827 94.9801 7.91936C95.5874 8.18045 96.0399 8.57802 96.3376 9.11207C96.6353 9.64611 96.7841 10.3404 96.7841 11.1949V16.9981H94.3013L94.1405 15.8767H94.1049C93.9501 16.1378 93.7416 16.3692 93.4796 16.571C93.2177 16.7727 92.8962 16.9329 92.5152 17.0516C92.134 17.1822 91.6995 17.2474 91.2112 17.2474ZM92.2472 15.3961C92.5925 15.3961 92.9021 15.3248 93.176 15.1824C93.4618 15.0281 93.6761 14.8086 93.819 14.5238C93.9738 14.2271 94.0513 13.877 94.0513 13.4735V12.797H93.0331C92.5687 12.797 92.1758 12.8445 91.8542 12.9395C91.5446 13.0225 91.3006 13.1649 91.1219 13.3666C90.9552 13.5566 90.8718 13.8117 90.8718 14.1321C90.8718 14.4169 90.9254 14.6543 91.0326 14.8442C91.1517 15.034 91.3124 15.1764 91.5148 15.2714C91.7172 15.3545 91.9614 15.3961 92.2472 15.3961ZM98.2382 7.77695H100.953V9.02306H100.989C101.275 8.53648 101.656 8.16858 102.132 7.91936C102.62 7.67013 103.18 7.54552 103.811 7.54552C104.514 7.54552 105.097 7.67607 105.562 7.93716C106.038 8.19825 106.395 8.58988 106.634 9.11207C106.883 9.62238 107.008 10.2514 107.008 10.9991V16.9981H104.222V11.7467C104.222 11.0465 104.091 10.5303 103.829 10.198C103.579 9.86567 103.192 9.69952 102.668 9.69952C102.132 9.69952 101.721 9.8716 101.435 10.2158C101.162 10.5481 101.025 11.0584 101.025 11.7467V16.9981H98.2382V7.77695ZM112.826 17.2474C111.874 17.2474 111.046 17.0397 110.344 16.6243C109.653 16.209 109.117 15.6393 108.736 14.9154C108.367 14.1796 108.182 13.3488 108.182 12.4232C108.182 11.4619 108.379 10.6193 108.771 9.89534C109.164 9.15954 109.718 8.58395 110.432 8.16858C111.159 7.75321 112.004 7.54552 112.968 7.54552C113.755 7.54552 114.451 7.67607 115.059 7.93716C115.678 8.18639 116.172 8.56021 116.541 9.05866C116.91 9.54524 117.131 10.1208 117.202 10.7854H114.505C114.433 10.4056 114.267 10.1149 114.005 9.91314C113.743 9.71139 113.403 9.61051 112.986 9.61051C112.57 9.61051 112.212 9.71732 111.915 9.93094C111.617 10.1446 111.385 10.4531 111.218 10.8566C111.064 11.2601 110.987 11.7467 110.987 12.3163C110.987 12.9097 111.057 13.4201 111.2 13.8473C111.356 14.2745 111.582 14.6009 111.879 14.8264C112.177 15.0519 112.534 15.1646 112.952 15.1646C113.403 15.1646 113.767 15.046 114.041 14.8086C114.315 14.5593 114.487 14.2152 114.559 13.7761H117.274C117.167 14.5 116.916 15.1231 116.524 15.6452C116.142 16.1674 115.637 16.565 115.005 16.8379C114.374 17.1109 113.647 17.2474 112.826 17.2474ZM122.638 17.2474C121.698 17.2474 120.869 17.0516 120.155 16.6599C119.452 16.2684 118.905 15.7105 118.512 14.9866C118.13 14.2626 117.94 13.4023 117.94 12.4054C117.94 11.4797 118.13 10.6489 118.512 9.91314C118.905 9.16548 119.452 8.58395 120.155 8.16858C120.869 7.75321 121.698 7.54552 122.638 7.54552C123.638 7.54552 124.478 7.75914 125.157 8.18639C125.847 8.60175 126.371 9.19514 126.728 9.96655C127.086 10.7379 127.264 11.6518 127.264 12.708V13.0284H120.138V11.4263H124.567C124.543 11.0228 124.453 10.6787 124.299 10.3938C124.144 10.0971 123.924 9.86567 123.638 9.69952C123.364 9.53337 123.036 9.45029 122.656 9.45029C122.275 9.45029 121.947 9.52743 121.673 9.68172C121.399 9.836 121.173 10.0615 120.994 10.3582C120.816 10.6548 120.702 11.0109 120.655 11.4263V13.0284C120.667 13.515 120.756 13.9304 120.923 14.2745C121.089 14.6069 121.328 14.8679 121.637 15.0578C121.959 15.2358 122.346 15.3248 122.798 15.3248C123.263 15.3248 123.644 15.2358 123.942 15.0578C124.24 14.8797 124.442 14.6365 124.549 14.328H127.068C126.806 15.2655 126.3 15.9894 125.549 16.4997C124.799 16.9981 123.828 17.2474 122.638 17.2474ZM47.2188 23.5636H53.524C54.3456 23.5636 55.0482 23.6763 55.6317 23.9018C56.2152 24.1273 56.6558 24.4655 56.9535 24.9165C57.2512 25.3675 57.4 25.9075 57.4 26.5365C57.4 26.9519 57.3285 27.3197 57.1857 27.6401C57.0547 27.9606 56.8582 28.2454 56.5963 28.4947C56.3462 28.7439 56.0247 28.9575 55.6317 29.1355V29.1711C56.3938 29.361 56.9773 29.7289 57.3822 30.2748C57.7871 30.8088 57.9895 31.4615 57.9895 32.233C57.9895 32.9925 57.8049 33.6452 57.4358 34.1912C57.0666 34.737 56.5546 35.1524 55.8997 35.4373C55.2566 35.7221 54.5124 35.8645 53.6669 35.8645H47.2188V23.5636ZM53.0417 33.5859C53.6609 33.5859 54.1253 33.4554 54.435 33.1943C54.7565 32.9213 54.9172 32.5238 54.9172 32.0015C54.9172 31.4676 54.7565 31.0699 54.435 30.8088C54.1135 30.5359 53.6609 30.3994 53.0775 30.3994H50.291V33.5859H53.0417ZM52.8631 28.548C53.2084 28.548 53.5002 28.5006 53.7384 28.4056C53.9765 28.3107 54.1551 28.1624 54.2742 27.9606C54.4051 27.747 54.4707 27.4859 54.4707 27.1773C54.4707 26.7263 54.3278 26.3941 54.042 26.1805C53.7562 25.9549 53.3395 25.8422 52.7916 25.8422H50.291V28.548H52.8631ZM59.1731 26.6433H61.8524V28.2098H61.8881C62.0906 27.6283 62.4121 27.1832 62.8527 26.8747C63.3052 26.5661 63.8291 26.4118 64.4245 26.4118C64.746 26.4118 65.014 26.4415 65.2283 26.5009V28.9753C65.1331 28.9397 65.014 28.91 64.871 28.8862C64.7401 28.8625 64.5793 28.8506 64.3888 28.8506C63.8411 28.8506 63.3825 28.9693 63.0134 29.2067C62.6562 29.444 62.3883 29.7763 62.2097 30.2036C62.0429 30.619 61.9596 31.1292 61.9596 31.7345V35.8645H59.1731V26.6433ZM70.0817 36.1137C69.1053 36.1137 68.2597 35.912 67.5454 35.5084C66.8309 35.105 66.2831 34.5353 65.902 33.7995C65.5328 33.0637 65.3483 32.2151 65.3483 31.2539C65.3483 30.2926 65.5328 29.444 65.902 28.7082C66.2831 27.9724 66.8309 27.4088 67.5454 27.0171C68.2717 26.6136 69.1172 26.4118 70.0817 26.4118C71.0463 26.4118 71.8858 26.6136 72.6003 27.0171C73.3266 27.4206 73.8744 27.9903 74.2435 28.726C74.6246 29.45 74.8151 30.2926 74.8151 31.2539C74.8151 32.2271 74.6186 33.0815 74.2256 33.8173C73.8446 34.5413 73.2969 35.105 72.5824 35.5084C71.8799 35.912 71.0463 36.1137 70.0817 36.1137ZM70.0817 34.031C70.4985 34.031 70.8498 33.9241 71.1355 33.7105C71.4332 33.485 71.6535 33.1705 71.7964 32.767C71.9394 32.3516 72.0108 31.8473 72.0108 31.2539C72.0108 30.6961 71.9394 30.2095 71.7964 29.7941C71.6535 29.3788 71.4392 29.0584 71.1534 28.8329C70.8677 28.5956 70.5044 28.4769 70.0638 28.4769C69.6708 28.4769 69.3255 28.5836 69.0278 28.7973C68.7421 29.0109 68.5218 29.3253 68.367 29.7407C68.2241 30.1561 68.1526 30.6605 68.1526 31.2539C68.1526 31.8354 68.2241 32.3338 68.367 32.7492C68.5218 33.1646 68.7421 33.485 69.0278 33.7105C69.3136 33.9241 69.6649 34.031 70.0817 34.031ZM76.078 23.1541H78.8645V29.9365H78.9002L81.8474 26.6433H85.0268L80.5077 31.2539L78.8645 32.6602V35.8645H76.078V23.1541ZM82.0974 35.8645C81.514 34.7252 81.0734 33.9182 80.7757 33.4435C80.478 32.9569 80.216 32.6424 79.9897 32.5C79.7754 32.3457 79.5075 32.2745 79.186 32.2864L80.9543 30.5952H81.0079C81.4127 30.6545 81.7759 30.8088 82.0974 31.0581C82.419 31.2954 82.8238 31.7761 83.312 32.5C83.8122 33.2239 84.4731 34.3455 85.2947 35.8645H82.0974ZM85.8541 26.6433H88.6405V35.8645H85.8541V26.6433ZM87.2473 25.5218C86.9376 25.5218 86.6637 25.4625 86.4257 25.3438C86.1875 25.2132 86.0029 25.0411 85.8719 24.8276C85.7528 24.602 85.6933 24.3528 85.6933 24.0799C85.6933 23.795 85.7528 23.5458 85.8719 23.3322C86.0029 23.1185 86.1875 22.9465 86.4257 22.8159C86.6637 22.6853 86.9436 22.6201 87.2651 22.6201C87.5747 22.6201 87.8486 22.6853 88.0868 22.8159C88.3249 22.9465 88.5035 23.1185 88.6226 23.3322C88.7537 23.5458 88.8191 23.795 88.8191 24.0799C88.8191 24.3646 88.7537 24.6139 88.6226 24.8276C88.4916 25.0411 88.307 25.2132 88.0689 25.3438C87.8427 25.4625 87.5688 25.5218 87.2473 25.5218ZM90.1878 26.6433H92.9028V27.8894H92.9385C93.2242 27.4028 93.6054 27.0349 94.0816 26.7857C94.5699 26.5365 95.1295 26.4118 95.7607 26.4118C96.4632 26.4118 97.0468 26.5424 97.5112 26.8035C97.9875 27.0645 98.3447 27.4562 98.5829 27.9783C98.8329 28.4887 98.958 29.1177 98.958 29.8654V35.8645H96.1716V30.613C96.1716 29.9128 96.0405 29.3966 95.7786 29.0643C95.5285 28.7319 95.1415 28.5658 94.6175 28.5658C94.0816 28.5658 93.6709 28.7379 93.385 29.0821C93.1112 29.4144 92.9742 29.9247 92.9742 30.613V35.8645H90.1878V26.6433ZM104.668 39.2468C103.823 39.2468 103.097 39.1459 102.489 38.9442C101.882 38.7425 101.406 38.4339 101.06 38.0185C100.715 37.615 100.507 37.1047 100.435 36.4876H103.204C103.275 36.8436 103.448 37.0988 103.722 37.253C103.996 37.4073 104.353 37.4844 104.793 37.4844C105.198 37.4844 105.538 37.4073 105.812 37.253C106.086 37.0988 106.288 36.8673 106.419 36.5587C106.562 36.262 106.634 35.8823 106.634 35.4195V34.2801H106.598C106.324 34.7311 105.96 35.0812 105.508 35.3304C105.067 35.5678 104.543 35.6864 103.936 35.6864C103.114 35.6864 102.418 35.4966 101.846 35.1169C101.275 34.7252 100.846 34.1792 100.56 33.4791C100.274 32.767 100.132 31.9482 100.132 31.0225C100.132 30.1443 100.286 29.361 100.596 28.6726C100.906 27.9724 101.346 27.4206 101.918 27.0171C102.501 26.6136 103.192 26.4118 103.99 26.4118C104.585 26.4118 105.103 26.5365 105.544 26.7857C105.984 27.0349 106.335 27.391 106.598 27.8538H106.634V26.6433H109.348V35.1702C109.348 36.0603 109.17 36.808 108.812 37.4132C108.455 38.0304 107.931 38.4873 107.241 38.784C106.55 39.0925 105.692 39.2468 104.668 39.2468ZM104.776 33.6749C105.169 33.6749 105.502 33.568 105.776 33.3545C106.062 33.1409 106.276 32.8442 106.419 32.4644C106.573 32.0847 106.651 31.6455 106.651 31.147C106.651 30.6486 106.586 30.2036 106.455 29.812C106.335 29.4085 106.133 29.088 105.847 28.8506C105.562 28.6015 105.198 28.4769 104.758 28.4769C104.377 28.4769 104.049 28.5836 103.775 28.7973C103.501 29.0109 103.293 29.3076 103.15 29.6874C103.007 30.0671 102.936 30.524 102.936 31.0581C102.936 31.5802 103.001 32.0371 103.132 32.4288C103.275 32.8204 103.484 33.129 103.757 33.3545C104.031 33.568 104.371 33.6749 104.776 33.6749ZM115.668 23.5636H118.741V33.3011H124.581V35.8645H115.668V23.5636ZM129.289 36.007C128.598 36.007 128.014 35.906 127.538 35.7043C127.074 35.4906 126.71 35.1347 126.448 34.6361C126.198 34.1377 126.074 33.485 126.074 32.6781V28.6015H124.394V26.6433H126.074V23.8484H128.877V26.6433H130.878V28.6015H128.877V32.3042C128.877 32.684 128.913 32.9807 128.985 33.1943C129.069 33.4078 129.193 33.5621 129.359 33.6571C129.527 33.7521 129.753 33.7995 130.038 33.7995C130.217 33.7995 130.378 33.7936 130.521 33.7817C130.663 33.758 130.795 33.7343 130.914 33.7105V35.8289C130.747 35.8764 130.527 35.9179 130.253 35.9535C129.979 35.9892 129.658 36.007 129.289 36.007ZM135.494 36.1137C134.673 36.1137 133.964 35.8942 133.369 35.4551C132.785 35.016 132.344 34.4285 132.047 33.6927C131.749 32.9569 131.6 32.1262 131.6 31.2005C131.6 30.2748 131.749 29.45 132.047 28.726C132.344 28.0022 132.785 27.4384 133.369 27.0349C133.952 26.6195 134.655 26.4118 135.476 26.4118C136.036 26.4118 136.554 26.5365 137.03 26.7857C137.507 27.0349 137.876 27.3851 138.137 27.8359H138.173V23.1541H140.978V35.8645H138.28V34.654H138.245C137.958 35.1524 137.584 35.5203 137.12 35.7577C136.656 35.9951 136.113 36.1137 135.494 36.1137ZM136.316 34.031C136.756 34.031 137.113 33.9241 137.387 33.7105C137.673 33.485 137.888 33.1646 138.03 32.7492C138.185 32.322 138.263 31.8176 138.263 31.2361C138.263 30.6664 138.191 30.1799 138.048 29.7763C137.906 29.361 137.686 29.0405 137.387 28.8151C137.102 28.5895 136.744 28.4769 136.316 28.4769C135.911 28.4769 135.565 28.5895 135.28 28.8151C134.994 29.0405 134.773 29.361 134.619 29.7763C134.476 30.1917 134.404 30.6842 134.404 31.2539C134.404 31.788 134.476 32.2686 134.619 32.6958C134.761 33.1111 134.976 33.4376 135.262 33.6749C135.547 33.9123 135.899 34.031 136.316 34.031ZM144.218 35.9713C143.908 35.9713 143.628 35.9001 143.378 35.7577C143.128 35.6034 142.932 35.4017 142.788 35.1524C142.646 34.8913 142.575 34.6006 142.575 34.2801C142.575 33.9597 142.646 33.6749 142.788 33.4256C142.932 33.1765 143.128 32.9807 143.378 32.8383C143.628 32.6958 143.908 32.6246 144.218 32.6246C144.527 32.6246 144.807 32.6958 145.057 32.8383C145.319 32.9807 145.522 33.1765 145.665 33.4256C145.808 33.6749 145.878 33.9597 145.878 34.2801C145.878 34.6006 145.808 34.8913 145.665 35.1524C145.522 35.4017 145.319 35.6034 145.057 35.7577C144.807 35.9001 144.527 35.9713 144.218 35.9713Z" fill="black"/>
<defs>
<linearGradient id="paint0_linear_4986_80721" x1="0.0878192" y1="0.13639" x2="40.8974" y2="41.0841" gradientUnits="userSpaceOnUse">
<stop offset="0.08" stop-color="#F3B561"/>
<stop offset="0.45" stop-color="#F6C586"/>
<stop offset="1" stop-color="#C78724"/>
</linearGradient>
</defs>
</svg>
