<svg xmlns="http://www.w3.org/2000/svg" width="109" height="150.723" viewBox="0 0 109 150.723">
  <g id="Group_31825" data-name="Group 31825" transform="translate(-134 -299.277)">
    <g id="Group_31824" data-name="Group 31824" transform="translate(134 299.277)">
      <g id="Group_31823" data-name="Group 31823" transform="translate(0 0)">
        <g id="Layer_2" transform="translate(0 0)">
          <g id="Group_31822" data-name="Group 31822" transform="translate(0 0)">
            <path id="Path_22829" data-name="Path 22829" d="M518.739,604.181v-.019c0-.007,0-.015,0-.023-.017-.334-.052-1.043-.1-2.063.038.864.08,1.776.1,2.117v0S518.739,604.184,518.739,604.181Zm-.13-2.77c0,.061.005.123.008.187C518.614,601.537,518.611,601.474,518.609,601.411Zm-.007-.152c0,.049,0,.1.007.152C518.606,601.361,518.6,601.311,518.6,601.259Zm91.219-16.667a8.369,8.369,0,0,0,2.652-2.22c.757-1.2,1.432-2.268,2.693-2.7V545.56a23.006,23.006,0,0,0-2.763-11.016c-3.721-6.641-10.7-9.974-17.858-9.974H531.633a26.021,26.021,0,0,0-16.81,6.963,25.756,25.756,0,0,0-7.253,12.416,13.235,13.235,0,0,1,4.921,3.209,11.419,11.419,0,0,1,1.2,1.509,16.3,16.3,0,0,1,2.375,8.7,15.26,15.26,0,0,1-1.147,6.937,9.777,9.777,0,0,1-5.6,5.116,14.049,14.049,0,0,1-2.083.527q.011.705.021,1.411.3,19.949.6,39.9a18.8,18.8,0,0,0,18.815,18.815h67.871c10.391,0,18.982-6.242,20.621-16.639V597.3a5.944,5.944,0,0,1-.916-.223,12.109,12.109,0,0,1-2.011-.945,12.955,12.955,0,0,1-3.652-2.646,6.284,6.284,0,0,1-.977-1.523,6.11,6.11,0,0,1-.014-5.109A5.872,5.872,0,0,1,609.821,584.592Zm-7.344,19.662a14.933,14.933,0,0,1-14.933,14.933H547.569a3.691,3.691,0,0,1-.732,3.567,6.265,6.265,0,0,1-.483.574,8.9,8.9,0,0,1-5.771,2.552,8.466,8.466,0,0,1-4.006-.707,9.483,9.483,0,0,1-4.512-5.147c-.139-.319-.271-.643-.389-.972q-.6-.081-1.193-.21l-.081-.018a14.937,14.937,0,0,1-11.659-14.572c0-.007,0-.015,0-.023s0-.007,0-.014h0s0,0,0,0,0-.009,0-.014a.01.01,0,0,0,0,0v0s0-.006,0-.009v-.019c0-.007,0-.015,0-.023-.017-.334-.052-1.043-.1-2.063,0-.011,0-.023,0-.034,0-.058-.005-.116-.008-.174,0-.073-.007-.148-.01-.225a.056.056,0,0,0,0-.007c0-.005,0-.01,0-.016s0-.005,0-.007,0-.011,0-.016c0-.061-.005-.124-.008-.187s0-.1-.007-.152-.005-.119-.008-.176,0-.084-.006-.125c0-.014,0-.027,0-.04l-.017-.389c-.033-.763-.069-1.624-.107-2.572,0-.079-.006-.158-.01-.239-.038-.961-.077-2.008-.117-3.124,0,0,0-.01,0-.016s0-.024,0-.038,0-.01,0-.015a.12.12,0,0,0,0-.012c0-.006,0-.013,0-.02s0-.013,0-.02,0-.009,0-.014,0-.011,0-.017,0-.015,0-.022,0-.042,0-.063,0-.043,0-.063l0-.06s0-.01,0-.015V594.2c0-.008,0-.016,0-.024,0-.029,0-.059,0-.09s0-.063,0-.094q-.014-.407-.029-.826,0-.146-.01-.295t-.01-.3c-.042-1.283-.084-2.638-.123-4.049,0-.05,0-.1,0-.153-.336-12.156-.493-28.378.6-37.984.318-2.783.987-7.172,4.374-10.559a13.929,13.929,0,0,1,4.318-2.906,19.325,19.325,0,0,1,6.241-1.468h53.868a20.845,20.845,0,0,1,9.689,5.4,21.215,21.215,0,0,1,5.244,9.538C604.9,558.777,605.26,578.485,602.477,604.254ZM518.6,601.259c0,.049,0,.1.007.152C518.606,601.361,518.6,601.311,518.6,601.259Zm.007.152c0,.061.005.123.008.187C518.614,601.537,518.611,601.474,518.609,601.411Z" transform="translate(-507.24 -524.57)" fill="#fff"/>
          </g>
          <g id="Layer_4" transform="translate(0 24.097)">
            <path id="Path_22831" data-name="Path 22831" d="M515.886,1215.458a9.777,9.777,0,0,1-5.6,5.116,17.337,17.337,0,0,1-3.028.687q-.011-.705-.021-1.411a14.023,14.023,0,0,0,2.083-.527,9.775,9.775,0,0,0,5.6-5.116,15.262,15.262,0,0,0,1.147-6.937,16.3,16.3,0,0,0-2.375-8.7c2.5,2.819,3.242,6.459,3.341,9.951A15.262,15.262,0,0,1,515.886,1215.458Z" transform="translate(-507.24 -1198.57)" fill="#fff" opacity="0.29"/>
            <path id="Path_22832" data-name="Path 22832" d="M3291.246,2033.5v1.158c-1.261.427-1.936,1.494-2.692,2.7-1.146,1.816-3.82,2.294-4.877,4.477a6.108,6.108,0,0,0,.013,5.109,6.176,6.176,0,0,1-.594-6.125c1.057-2.183,3.732-2.661,4.877-4.477C3288.839,2034.964,3289.6,2033.767,3291.246,2033.5Z" transform="translate(-3183.32 -2003.649)" fill="#fff" opacity="0.29"/>
            <path id="Path_22834" data-name="Path 22834" d="M1171.022,3165.441a5.988,5.988,0,0,1-.386.586,8.628,8.628,0,0,1-6.254,3.126,8.47,8.47,0,0,1-4.006-.707,9.481,9.481,0,0,1-4.512-5.146,12.54,12.54,0,0,1-.793-2.36q.628.141,1.274.228c.118.329.25.653.389.972a9.483,9.483,0,0,0,4.512,5.146,8.465,8.465,0,0,0,4.006.707A8.9,8.9,0,0,0,1171.022,3165.441Z" transform="translate(-1131.908 -3090.781)" fill="#fff" opacity="0.29"/>
          </g>
        </g>
        <g id="Layer_3" transform="translate(0.391 0.394)">
          <path id="Path_22835" data-name="Path 22835" d="M550.691,553.334c-.183-.1,1.139-4.307,4.333-8.176a26,26,0,0,1,6.961-5.765,24.889,24.889,0,0,1,4.3-2.175,24.283,24.283,0,0,1,6.091-1.468c3.087-.336,5.994-.062,6,.163s-3.23-.014-7.251,1.051c-4.845,1.283-8.13,3.764-10.877,5.837a32.721,32.721,0,0,0-7.5,7.432C551.475,552.017,550.8,553.391,550.691,553.334Z" transform="translate(-549.513 -535.593)" fill="#fff" opacity="0.79"/>
          <path id="Path_22837" data-name="Path 22837" d="M518.247,1850.688c-.171.016-.008,2.292.145,10.3.028,1.459.046,2.739.065,4.144.091,6.476.065,8.761.152,8.763.17,0,.5-6.836.562-8.176.26-5.435.2-6.93.163-7.632C519.134,1854.182,518.46,1850.668,518.247,1850.688Z" transform="translate(-518.174 -1803.67)" fill="#fff" opacity="0.79"/>
          <path id="Path_22840" data-name="Path 22840" d="M2779.894,2432.1c-.053,0-.045.957-.363,4.266-.214,2.233-.494,4.671-.677,6.26-.043.38-.079.69-.1.888a16.15,16.15,0,0,1-.118,1.807,17.622,17.622,0,0,1-.9,3.7,15.511,15.511,0,0,1-4.87,6.478,15.154,15.154,0,0,1-4.762,2.514,14.491,14.491,0,0,1-4.061.653,17.491,17.491,0,0,0,5.65-.943,13.352,13.352,0,0,0,4.84-2.61,13.016,13.016,0,0,0,3.3-4.568,17.176,17.176,0,0,0,1.414-5.873A87.907,87.907,0,0,0,2779.894,2432.1Z" transform="translate(-2683.743 -2364.295)" fill="#fff" opacity="0.79"/>
          <path id="Path_22841" data-name="Path 22841" d="M997.616,2582.48v15.286c-1.64,10.4-10.23,16.639-20.621,16.639H909.124a18.812,18.812,0,0,1-5.254-.743c1.909.06,4.019.115,6.3.157,4.836.089,7.721.139,10.587,0a75.48,75.48,0,0,0,17.62-3.19c22.255-5.9,30.186,2.425,42.383-5.837,6.07-4.112,10.253-10.338,11.638-12.4A52.688,52.688,0,0,0,997.616,2582.48Z" transform="translate(-890.08 -2509.299)" fill="#fff" opacity="0.32"/>
          <path id="Path_22843" data-name="Path 22843" d="M3381.8,814.546v34.115c-1.262.428-1.936,1.494-2.693,2.7a8.371,8.371,0,0,1-2.652,2.221c.856-6.994,1.277-12.853,1.5-17.178.31-5.956.464-8.934.363-12.871-.132-5.125-.556-8.45-.073-14.031.222-2.554.55-4.629.79-5.968A23.012,23.012,0,0,1,3381.8,814.546Z" transform="translate(-3274.26 -793.951)" fill="#fff" opacity="0.32"/>
          <path id="Path_22844" data-name="Path 22844" d="M785.382,2339.517a10.928,10.928,0,0,0-1.6-.074,12.425,12.425,0,0,1-8.557-3.553,12.1,12.1,0,0,1-2.646-5.04c-.858-2.614-.886-4.706-.907-8.774-.008-1.588.033-3.739.242-6.3,0-.191,0-.458,0-.777.01-.5.038-1.243.109-2.174a8.831,8.831,0,0,1,.348-2.124,7.41,7.41,0,0,1,.743-1.644c0,.052,0,.1,0,.153.088,2.9.139,4.518.172,5.468l0,.094c0,.03,0,.06,0,.09,0,.007,0,.015,0,.024s0,.015,0,.024,0,.01,0,.014,0,.039,0,.06l0,.126c0,.008,0,.015,0,.022s0,.012,0,.017,0,.009,0,.014,0,.013,0,.02,0,.013,0,.02,0,.008,0,.012c0,.021,0,.038,0,.052s0,.011,0,.016c.04,1.117.079,2.163.117,3.125q0,.12.01.238c.038.948.074,1.809.107,2.572l.017.389c0,.013,0,.026,0,.04,0,.04,0,.082.006.125s.005.115.008.175,0,.1.007.152.005.123.008.187c0,.005,0,.011,0,.016s0,0,0,.007,0,.009,0,.016a.041.041,0,0,1,0,.007c.014.266.1,2.061.118,2.495,0,.008,0,.016,0,.023s0,.014,0,.02,0,.006,0,.009,0,.006,0,.008,0,.01,0,.013v0h0c0,.007,0,.012,0,.014s0,.016,0,.023A14.938,14.938,0,0,0,785.382,2339.517Z" transform="translate(-762.612 -2245.655)" fill="#fff" opacity="0.27"/>
          <path id="Path_22845" data-name="Path 22845" d="M1108.881,790.833H1078.34a19.323,19.323,0,0,0-6.241,1.468,11.223,11.223,0,0,1,2.784-1.9c2.5-1.192,4.634-1.028,8.375-.87,0,0,5.77.244,11.312.272,5.411.027,6.938-.254,10.5.272C1106.513,790.287,1107.8,790.561,1108.881,790.833Z" transform="translate(-1052.296 -780.345)" fill="#fff" opacity="0.27"/>
          <path id="Path_22847" data-name="Path 22847" d="M1642.3,3174.45a15.4,15.4,0,0,1,2.393-.018c1.788.027,3.577,0,5.366.018,6.044.059,9.891-.014,9.892.054,0,.042-1.464.063-4.78.217-5.141.24-6.665.425-9.463.2A18.714,18.714,0,0,1,1642.3,3174.45Z" transform="translate(-1602.109 -3080.064)" fill="#fff" opacity="0.79"/>
        </g>
      </g>
      <path id="Path_22848" data-name="Path 22848" d="M-127.245-303.75l7.768-.427q.341,2.988.6,6.573t.341,7.214q.085,3.628.085,6.957V-260.9q-.512.171-1.665.427a10.79,10.79,0,0,1-2.348.256,5.711,5.711,0,0,1-3.628-.939,3.743,3.743,0,0,1-1.152-3.073Zm42.6,34.147-7.854.341q-.768-6.829-.9-13.7t-.128-13.275v-16.305q.683-.171,1.793-.384a12.178,12.178,0,0,1,2.3-.213,5.914,5.914,0,0,1,3.628.9,3.725,3.725,0,0,1,1.152,3.116Zm0-3.073v10.756a6.286,6.286,0,0,1-2.348,1.238,11.228,11.228,0,0,1-3.372.47,9.843,9.843,0,0,1-4.1-.811,7.191,7.191,0,0,1-3.159-3.372l-14.256-24.756q-1.2-2.22-2.518-4.7t-2.518-4.781q-1.2-2.3-1.963-4.012l-8.366,1.963v-10.5a5.5,5.5,0,0,1,2.39-1.451,10.467,10.467,0,0,1,3.329-.512,9.42,9.42,0,0,1,4.1.854,7.5,7.5,0,0,1,3.159,3.329L-99.927-284.2q1.281,2.134,2.561,4.652t2.433,4.823q1.152,2.3,1.921,4.012Z" transform="translate(160.012 336.718)" fill="#fff"/>
    </g>
    <text id="Nyash" transform="translate(134 440)" fill="#fff" font-size="29" font-family="Poppins-SemiBold, Poppins" font-weight="600" letter-spacing="0.165em"><tspan x="0" y="0">Ny</tspan><tspan y="0" font-family="SegoeUI-Bold, Segoe UI" font-weight="700">a</tspan><tspan y="0">sh</tspan></text>
  </g>
</svg>
