<svg xmlns="http://www.w3.org/2000/svg" width="215.008" height="86.633" viewBox="0 0 215.008 86.633">
  <g id="Layer_x0020_1" transform="translate(0 0.01)">
    <g id="_2216591944192" transform="translate(0 -0.01)">
      <g id="Group_36238" data-name="Group 36238" transform="translate(0 0)">
        <path id="Path_24695" data-name="Path 24695" d="M471.8,700.583c0-1.223.652-.6-.151-2.113a1.412,1.412,0,0,0-.755,1.056c0,1.011.482-.371.3,2.263-.28,4.115-.432,2.7-2.206,3.38a16.659,16.659,0,0,0-4.689,2.254,18.5,18.5,0,0,0-5.529,5.49l-2.238,4.7c-1.341,3.956-.654,5.4-.869,7.432-.12,1.135-1,.271-1.978.739-.451.939.07,2.584-.155,3.77-.122.644-.571.618-1.346.616-2.535,0-7.773-.264-9.518.142a2.188,2.188,0,0,0-.151.755c0,2.96-.285,3.086,1.617,3.363.831.121,1.3.426,2.242.626.9.19,1.393.455,2.179.689a7.454,7.454,0,0,1,.968.391c.384.157.7.23,1.014.344,1.717.618,3.494,1.676,4.918,2.327l1.787.93a4.35,4.35,0,0,0,.449.306l3.912,2.427c.635.424,1.122.735,1.722,1.146l5.754,4.208a10.579,10.579,0,0,0,2.417,1.659c.272,0,4.636-3.335,5.5-4.007l1.942-1.379a75.4,75.4,0,0,1,9.474-5.771l2.877-1.349a50.116,50.116,0,0,1,7.309-2.5c.636-.111,1.727-.067,1.727-.99,0-3.825.38-3.325-2.264-3.321q-1.434,0-2.868,0c-6.95,0-5.736,1.093-5.736-4.377-.728-.17-1.536-.132-2.264-.3,0-3.1.353-.776-.11-4.569-.389-3.186-.135-1.109-.734-3.493a18.633,18.633,0,0,0-5.326-8.259l-.233-.22-.081-.07-.515-.39c-.024-.02-.057-.05-.081-.07l-2.04-1.431a3.013,3.013,0,0,1-.713-.343l-2.131-1.039a3.65,3.65,0,0,1-.818-.239c-1.515-.651-1.47-.3-2.313-.706a22.089,22.089,0,0,1-.3-4.075Z" transform="translate(-426.821 -673.715)" fill="#fff" fill-rule="evenodd"/>
        <path id="Path_24696" data-name="Path 24696" d="M251.218,36.82c0,.856,0,1.712,0,2.568-.006,1.058.157,1.437.158,2.408,0,.82-.052,1.768,0,2.573v2.263c0,2-.151,8.68.109,10.608a4.643,4.643,0,0,1,0,1.084,2.765,2.765,0,0,0,.2.987,23.72,23.72,0,0,0,3.925,0,7.363,7.363,0,0,1-.168-1.5c-.249-3.312.4-11.6-.071-14.711a47.9,47.9,0,0,1,.082-8.394c.318-1.247.247-2.9.529-3.7.178-.5.2-.306.336-.721l.473-1.64a4.579,4.579,0,0,0,.326-.881,8.343,8.343,0,0,1,1.01-2.009c.018-.028.039-.067.056-.1l1.283-1.888c.343-.5.77-.809.823-1.441.689-.057.283.055.588-.318a21.586,21.586,0,0,1,3.093-3.1l.619-.588c.322-.335.721-.433,1.062-.75l1.556-1.312c.506-.455,1.183-.659,1.743-1.126l2.284-1.49a32.826,32.826,0,0,1,2.973-1.706l7-3.87c.049-.032.242-.149.284-.169a6.569,6.569,0,0,0,.642-.264c.028-.016.063-.042.091-.06l1.18-.632a14.453,14.453,0,0,1,1.771-1.1c1.1-.447,1.348-1.162,2.571-.569l9.059,4.986a4.99,4.99,0,0,1,.667.389l.6.31c.365.194.307.22.554.352l.207.095c.034.015.077.026.112.039l6.7,4.017c.027.017.063.043.089.061.261.183.006.015.246.207.088.071.167.133.256.2.209.153.433.323.622.435.889.531,1.331,1.018,2.183,1.59l4.146,4,.076.075L314.3,23.4c.019.025.049.058.068.083l1.656,2.571a25.816,25.816,0,0,1,1.395,3.285l.67,2.2c.428,1.215.544,9.153.451,10.871l-.152,16.6c0,.8,1.215.379,1.682.325,3.3-.387,2.394,2.021,2.394-11.494,0-3.9.273-7.423.156-11.326a18.687,18.687,0,0,0-.592-5.143c-.319-.878,0-1.585-.419-2.449-.149-.3.007.135-.211-.393a1.609,1.609,0,0,1-.157-.6l-.392-1.118c-.2-.36-.021.108-.2-.407a9.671,9.671,0,0,0-1.09-2.532l-1.134-1.734c-.265-.369-.307-.586-.582-.927-.463-.573-1.044-.864-1.118-1.75-.669-.056-.227.068-.523-.231l-.3-.455a25.05,25.05,0,0,0-2.268-2.26L311.268,14.5a20.075,20.075,0,0,0-2.814-2.016l-1.89-1.28c-1.656-1.2-4.742-2.657-5.777-3.431-.3-.224.043-.05-.46-.294l-.414-.19c-.029-.017-.064-.043-.091-.06l-7.98-4.246a2,2,0,0,1-.5-.257l-.562-.344c-.03-.016-.071-.033-.1-.05L286.991-.01l-6.76,3.958c-.032.017-.315.18-.388.215-.3.147-.474.194-.716.34L269.7,9.865c-.237.145-.494.18-.733.324-.429.259-.033.039-.336.268-.185.14-.229.152-.363.241l-2.813,1.715c-.557.323-.224.167-.575.482l-.714.493c-.477.357-.762.653-1.276.988l-4.659,4.4a10.838,10.838,0,0,0-1.569,1.751l-3.326,5.731c-.3.47-.163-.215-.4.812-.213.941-.428.7-.609,1.655l-.424,1.84c-.532,1.682-.114,3.618-.471,5.264a4.026,4.026,0,0,0-.216.992Z" transform="translate(-242.312 0.01)" fill="#fff" fill-rule="evenodd"/>
        <path id="Path_24697" data-name="Path 24697" d="M97.984,1885.52c-1.34-.415-2.855-.586-4.125-1.008l-4.337-.946-10.828-1.1c-.169.7-.064.765.2,1.455l1.165,2.761c.28.633.421.563,1.174.788,1.012.3,2.232.312,3.315.61a11.515,11.515,0,0,0,1.563.4,6.31,6.31,0,0,1,1.451.36c.516.145.98.187,1.628.335a78.117,78.117,0,0,1,9.07,2.7,8.8,8.8,0,0,0,1.38.432l2.22.8a2.66,2.66,0,0,0,.625.281,51.948,51.948,0,0,1,5.607,2.242c.514.272.9.342,1.381.581a3.885,3.885,0,0,0,.6.309l2.659,1.265c3.211,1.618,2.85.937,3.78,2.861.684,1.414,2.6,1.7,4,1.737.168,0,1.5-.148,1.743-.2l1.37-.592c1.015-.578.787-1.833,1.6-2.326,1.592-.968,3.491-1.726,5.167-2.531l2.7-1.221c1.4-.6,2.827-1.029,4.2-1.69l19.4-5.807c.452-.115,1.147-.16,1.688-.274,3.532-.742,2.118-.773,3.738-3.968.465-.917.274-.371.2-1.306l-6.49.453c-.946.04-1.885.348-2.992.48l-8.576,1.839c-.522.158-.953.19-1.47.342l-4.4,1.49c-1.037.463-2.158.709-3.172,1.205l-1.82.746c-.275.118-.394.148-.649.256l-11.664,6.3c-.2.137-.217.181-.43.324-.513-.119-6.442-3.753-7.821-4.406l-7.125-3.29c-.4-.176-.832-.292-1.226-.434a52.133,52.133,0,0,0-5.143-1.8c-.621-.152-.9-.311-1.358-.453Z" transform="translate(-75.827 -1815.754)" fill="#fff" fill-rule="evenodd"/>
        <path id="Path_24698" data-name="Path 24698" d="M1554.54,1762.312v.3a5.253,5.253,0,0,0,2.185-.834c.289-.145.148-.094.389-.215a23.943,23.943,0,0,0,3.162-1.366l1.408-.554a14.549,14.549,0,0,0,1.749-.666l.456-.148c.78-.167,1.022-.01,1.628-.333a20.2,20.2,0,0,1,4.056-1.076,9.192,9.192,0,0,1,1.882-.533,7.024,7.024,0,0,0,2.179-.387c.977-.294,2.093-.142,3.351-.423a12.813,12.813,0,0,1,3.469-.44,6.278,6.278,0,0,1,.952.031,5.338,5.338,0,0,0,1.275-.085,40.338,40.338,0,0,1,5.069-.064,2.459,2.459,0,0,1,.6-1.221c.811-1.252,2.355-.893-7.389-.893a14.385,14.385,0,0,0-3.808.569c-.757.107-1.271.021-1.947.167a31.9,31.9,0,0,0-4.373,1.06c-1.022.365-.532-.16-1.81.454l-3.438,1.09c-.463.244.187.115-.687.37-1.675.489-1.69.786-3.438,1.392l-.571.335c-.7.452-.344-.016-1.342.62-.306.195-.373.186-.691.365a7.2,7.2,0,0,1-.645.412,4.656,4.656,0,0,0-.821.387l-1.722.995c-.683.343-.247.487-1.121.69Z" transform="translate(-1499.446 -1691.218)" fill="#fff" fill-rule="evenodd"/>
        <path id="Path_24699" data-name="Path 24699" d="M10.391,1753.584c-1.792-.574-8.343-.326-10.391-.326.112.876.22.221.55.959.493,1.1-.147,1.155,2.922,1.154.941,0,1.939-.033,2.873-.005.874.026,1.47.163,2.562.155,3.06-.023,1.057.588,4.986.6a6.086,6.086,0,0,1,2.219.5c.662.168,1.659.093,2.384.333.6.2.4.275,1.129.381,2.142.309,1.1.4,2.129.588a6.869,6.869,0,0,1,1.163.2c.5.168.428.27.929.43.354.113.769.106,1.126.233a5.666,5.666,0,0,0,.933.425c.52.136.6,0,1.071.287.643.385.152.283,1.094.416.7.1.776.309,1.949.768.438.171.459.266.909.449l2.76,1.349c.58.208.479.161.727-.309a15.076,15.076,0,0,1-2.659-1.416l-4.415-2.377a11.227,11.227,0,0,1-2.444-1.027c-.789-.6-.639-.094-1.44-.523-1.28-.686-.807-.252-1.545-.569-1.218-.523-.214-.243-1.5-.465-.7-.121-.518-.227-.929-.43-.5-.247-1.3-.188-2.224-.493A8.665,8.665,0,0,0,15,1754.4c-.662-.154-.388-.226-.985-.374l-2.423-.294a4,4,0,0,1-1.205-.154Z" transform="translate(0 -1691.07)" fill="#fff" fill-rule="evenodd"/>
        <path id="Path_24700" data-name="Path 24700" d="M971.05,2018.76v.3c.591.137.315.137.906,0C971.84,2018.981,971.95,2018.835,971.05,2018.76Z" transform="translate(-936.635 -1947.214)" fill="#fff" fill-rule="evenodd"/>
        <path id="Path_24701" data-name="Path 24701" d="M1525.626,2019.072v-.3a3.183,3.183,0,0,1-.906.152c.346.479-.009.171.906.151Z" transform="translate(-1470.683 -1947.223)" fill="#fff" fill-rule="evenodd"/>
      </g>
      <text id="PRAYER" transform="translate(99.008 58.889)" fill="#fff" font-size="50" font-family="Bebas Neue"><tspan x="0" y="0">PRAYER</tspan></text>
    </g>
  </g>
</svg>
