<svg xmlns="http://www.w3.org/2000/svg" width="173" height="140.253" viewBox="0 0 173 140.253">
  <g id="Group_5017" data-name="Group 5017" transform="translate(-99 -342.583)">
    <g id="OBJECTS" transform="translate(-25.75 194.146)">
      <g id="Group_3" data-name="Group 3" transform="translate(139.25 134.854)">
        <path id="Path_1" data-name="Path 1" d="M222.478,155.188A55.377,55.377,0,0,0,167.1,210.566c0,.166.011.329.012.494H185.73c0-.11-.008-.218-.008-.328a36.756,36.756,0,1,1,73.511,0c0,.11-.007.218-.008.328h18.619c0-.165.012-.329.012-.494A55.378,55.378,0,0,0,222.478,155.188Z" transform="translate(-148.496 -141.605)" fill="#c800a1"/>
        <g id="Group_1" data-name="Group 1" transform="translate(18.604 30.412)">
          <path id="Path_2" data-name="Path 2" d="M296.751,219.1c0,.11-.007.218-.008.328h18.619c0-.165.012-.329.012-.494a55.177,55.177,0,0,0-15.639-38.549l-19.628,7.955A36.718,36.718,0,0,1,296.751,219.1Z" transform="translate(-204.617 -180.381)" fill="#dbf2dd" opacity="0.21"/>
          <path id="Path_3" data-name="Path 3" d="M185.73,234.65c0-.11-.008-.218-.008-.328a36.833,36.833,0,0,1,.9-8.079L167.1,234.156l10.442.494Z" transform="translate(-167.1 -195.607)" fill="#dbf2dd" style="mix-blend-mode: multiply;isolation: isolate"/>
        </g>
        <path id="Path_6" data-name="Path 6" d="M233.275,353l33.684-24.431H199.528Z" transform="translate(-159.262 -199.168)" fill="#c800a1"/>
        <line id="Line_1" data-name="Line 1" x2="171" transform="translate(-13.5 74.5)" fill="none" stroke="#414143" stroke-linecap="round" stroke-width="2"/>
        <line id="Line_2" data-name="Line 2" x2="171" transform="translate(-13.5 123.5)" fill="none" stroke="#414143" stroke-linecap="round" stroke-width="2"/>
        <path id="Path_7" data-name="Path 7" d="M251.066,340.1l-51.538-11.527L233.275,353Z" transform="translate(-159.262 -199.168)" fill="#dbf2dd" style="mix-blend-mode: multiply;isolation: isolate"/>
        <g id="Group_9" data-name="Group 9" transform="translate(-907.137 -987.203)">
          <path id="Path_26" data-name="Path 26" d="M1757.935,1206h-.03l-2.01-.062-4.133-3.738.03-.174a6.74,6.74,0,0,0-6.634-7.874,6.764,6.764,0,0,0-1.8.245l-.17.047-1.836-1.661.055-.192a6.532,6.532,0,0,0-.586-5.026l-.17-.3.317-.145a10.5,10.5,0,0,1,1.184-.315.966.966,0,0,1,1.053.489l1.123,2.09a.324.324,0,0,0,.285.171h.015c.177-.008.356-.012.532-.012.279,0,.561.01.839.031h.024a.326.326,0,0,0,.281-.163l1.182-2.059a.965.965,0,0,1,1.067-.458c.35.085.7.185,1.045.3a.972.972,0,0,1,.667.949l-.073,2.375a.326.326,0,0,0,.175.3,11.452,11.452,0,0,1,1.176.7.322.322,0,0,0,.182.056.326.326,0,0,0,.164-.044l2.055-1.193a.967.967,0,0,1,1.152.135c.261.249.516.511.758.778a.972.972,0,0,1,.1,1.157l-1.25,2.019a.327.327,0,0,0,0,.346,11.343,11.343,0,0,1,.668,1.2.326.326,0,0,0,.293.183l2.375-.006a.972.972,0,0,1,.928.694c.1.346.191.7.266,1.054a.972.972,0,0,1-.489,1.053l-2.09,1.122a.326.326,0,0,0-.171.3,11.292,11.292,0,0,1-.019,1.371.326.326,0,0,0,.162.306l2.059,1.182a.971.971,0,0,1,.458,1.067c-.085.35-.185.7-.3,1.045A.964.964,0,0,1,1757.935,1206Z" transform="translate(-764.773 -153.979)" fill="#ddd"/>
          <path id="Path_27" data-name="Path 27" d="M1203.856,1757.549a.965.965,0,0,1-.851-.51l-1.123-2.09a.324.324,0,0,0-.285-.171h-.015c-.177.008-.355.013-.532.013-.279,0-.561-.01-.839-.031h-.024a.326.326,0,0,0-.281.163l-1.182,2.059a.965.965,0,0,1-1.067.458c-.35-.085-.7-.185-1.045-.3a.972.972,0,0,1-.667-.949l.073-2.375a.326.326,0,0,0-.175-.3,11.5,11.5,0,0,1-1.176-.7.322.322,0,0,0-.182-.056.326.326,0,0,0-.163.044l-2.055,1.193a.967.967,0,0,1-1.152-.135c-.261-.249-.516-.511-.758-.778a.971.971,0,0,1-.1-1.157l1.25-2.019a.327.327,0,0,0,0-.346,11.3,11.3,0,0,1-.668-1.2.326.326,0,0,0-.293-.183l-2.375.006a.972.972,0,0,1-.928-.694c-.1-.346-.191-.7-.266-1.054a.971.971,0,0,1,.489-1.053l2.09-1.123a.325.325,0,0,0,.171-.3,11.341,11.341,0,0,1,.019-1.371.326.326,0,0,0-.162-.306l-2.059-1.182a.971.971,0,0,1-.458-1.067c.061-.248.129-.5.2-.747l.115-.382.348.195a6.621,6.621,0,0,0,5.034.588l.192-.055,1.66,1.836-.047.17a6.738,6.738,0,0,0,6.486,8.532h0a6.757,6.757,0,0,0,1.142-.1l.174-.03,3.433,3.8.006,2.487a.971.971,0,0,1-.694.93c-.346.1-.7.191-1.054.267A.963.963,0,0,1,1203.856,1757.549Z" transform="translate(-220.677 -696.534)" fill="#ddd"/>
          <path id="Path_28" data-name="Path 28" d="M1077.259,1081.582a4.116,4.116,0,0,1-3.061-1.359l-17.362-19.194a6.422,6.422,0,0,1-5.065-.4,6.454,6.454,0,0,1-3.328-4.673,6.326,6.326,0,0,1,.283-3.085l.168-.484,3.744,3.744a.369.369,0,0,0,.522,0l2.77-2.77a.369.369,0,0,0,0-.522l-3.744-3.744.484-.168a6.4,6.4,0,0,1,2.1-.354,6.311,6.311,0,0,1,3.044.767,6.457,6.457,0,0,1,3.3,4.78,6.3,6.3,0,0,1-.289,2.916l19.194,17.361a4.127,4.127,0,0,1-2.767,7.187Z" transform="translate(-84.5 -18.17)" fill="#fff"/>
          <path id="Path_29" data-name="Path 29" d="M2574.582,2574.01a.408.408,0,0,1-.408.408h-3.116a.408.408,0,0,1-.408-.408v-3.116a.408.408,0,0,1,.408-.408h3.116a.408.408,0,0,1,.408.408Z" transform="translate(-1580.374 -1513.682)"/>
          <path id="Path_30" data-name="Path 30" d="M1637.779,1918.193a6.416,6.416,0,0,1-7.148-7.9Z" transform="translate(-656.475 -864.94)"/>
          <path id="Path_31" data-name="Path 31" d="M1918.423,1637.562l-7.9-7.149a6.406,6.406,0,0,1,7.773,4.65A6.369,6.369,0,0,1,1918.423,1637.562Z" transform="translate(-931.696 -589.728)"/>
          <path id="Path_32" data-name="Path 32" d="M1065.863,1069.546l-.034.012q-.107.04-.216.076l-.115.037.051.056.018.02.043.048.035.038.477.527.047.053.025.027.025.027.039.043.037.041.077.085.027.03.08.089.741.82-.06.215c-.014.051-.028.1-.04.153l.46.508.01-.039,6.719,7.428.117-.019.22-.038.175.193.171.189.195.215.192.212,2.028,2.242.109.121.178.2.166.184.112.123.33.365.109.12.113.125.168.186.221.244.109.12.108.119.106.118.053.058.074.082.23.255.075.083.28.31.087.1.106.117.047.052.094.1.092.1.01.011.068.075.449.5.118.13.121.134.074.082.074.082.147.162h.477Zm10.1,17.713-1.039-1.934a.645.645,0,0,0-.568-.34h-.03l-.163.006.009.016,1.123,2.09.021.037.011.018.005.009.012.018.006.008.01.015.009.013a.894.894,0,0,0,.058.071h.55Zm14.678-1.024a4.434,4.434,0,0,0-1.463-3.187l-.085-.077-4-3.616h.051l1.411.043h.04a1.284,1.284,0,0,0,1.224-.889c.114-.351.216-.71.3-1.068a1.287,1.287,0,0,0-.606-1.419l0,0-2.059-1.182a0,0,0,0,1,0,0c0-.063.009-.127.012-.191a11.608,11.608,0,0,0,.007-1.219,0,0,0,0,1,0,0l2.09-1.123a1.288,1.288,0,0,0,.651-1.4c-.077-.361-.169-.723-.273-1.077a1.277,1.277,0,0,0-.465-.669,1.3,1.3,0,0,0-.125-.083,1.271,1.271,0,0,0-.6-.173h-.048l-2.372.006h0q-.036-.074-.073-.148-.081-.161-.166-.321c-.14-.26-.29-.515-.449-.763a0,0,0,0,1,0,0l1.25-2.019a1.288,1.288,0,0,0-.139-1.541c-.24-.265-.492-.525-.751-.772l-.024-.023a1.282,1.282,0,0,0-.84-.354h-.047a1.29,1.29,0,0,0-.647.174l-2.055,1.193h0q-.147-.1-.3-.2c-.3-.188-.6-.364-.911-.525a0,0,0,0,1,0,0l.006-.206.067-2.169a1.285,1.285,0,0,0-.888-1.264c-.251-.082-.507-.157-.763-.226h0q-.152-.04-.3-.078a1.291,1.291,0,0,0-1.4.568l-.026.043-1.113,1.939-.069.12a0,0,0,0,1,0,0l-.029,0c-.277-.02-.557-.03-.834-.03-.182,0-.366,0-.547.013l0,0-.085-.158-.17-.317-.867-1.615a1.286,1.286,0,0,0-1.088-.678h-.047a1.288,1.288,0,0,0-.268.028,10.911,10.911,0,0,0-1.251.337l-.269.123q-.088-.126-.182-.248t-.208-.258a6.788,6.788,0,0,0-1.931-1.575,6.645,6.645,0,0,0-1.514-.595l-.083-.021h0a6.779,6.779,0,0,0-3.808.181l-.631.219-.337.117.255.255,3.382,3.382v0l.257.257.211.21a.046.046,0,0,1,.013.023.047.047,0,0,1,0,.011.047.047,0,0,1-.014.034l-2.77,2.769a.045.045,0,0,1-.034.014h-.011a.044.044,0,0,1-.023-.013l-4.106-4.106-.117.337-.219.631a6.812,6.812,0,0,0-.352,1.638,6.635,6.635,0,0,0,.055,1.6q.041.263.1.523a6.783,6.783,0,0,0,2.166,3.544q.132.114.269.22.111.086.225.168l-.114.379c-.077.253-.146.51-.208.764a1.277,1.277,0,0,0,.068.813,1.308,1.308,0,0,0,.068.136,1.277,1.277,0,0,0,.474.472l1.579.907.312.179.168.1s0,0,0,0a11.649,11.649,0,0,0-.021,1.38v.03a0,0,0,0,1,0,0l-.089.048-2,1.075c-.037.02-.073.042-.108.065a1.268,1.268,0,0,0-.342.336,1.3,1.3,0,0,0-.109.191,1.276,1.276,0,0,0-.091.81c.044.2.092.41.145.614h0c.04.155.083.31.127.463a1.288,1.288,0,0,0,1.236.925h0l2.144-.005h.231c.151.314.318.624.5.924q.092.154.189.305l0,0a0,0,0,0,1,0,0l-1.209,1.953-.041.066a1.278,1.278,0,0,0-.192.725h0c0,.023,0,.046,0,.068a1.276,1.276,0,0,0,.327.748q.139.154.283.3h0c.16.168.325.332.492.491a1.288,1.288,0,0,0,1.534.18l2.055-1.193h0c.238.162.484.316.735.461q.156.091.316.176l.159.084a0,0,0,0,1,0,0l-.073,2.375q0,.042,0,.084a1.275,1.275,0,0,0,.115.491,1.23,1.23,0,0,0,.057.11c.018.032.039.063.06.094a1.273,1.273,0,0,0,.532.438h2.416a1.27,1.27,0,0,0,.2-.26l.219-.382.963-1.677a0,0,0,0,1,0,0c.286.021.577.032.863.032.111,0,.224,0,.336,0l.211-.008a0,0,0,0,1,0,0l.89,1.657.232.432.021.037a1.287,1.287,0,0,0,.12.173h2.7a1.286,1.286,0,0,0,.566-1.07l0-1.916v-.05l2.165,2.394.581.642,1.192,1.318.077.085a4.45,4.45,0,0,0,7.442-1.365l.015-.038a4.429,4.429,0,0,0,.289-1.573C1090.639,1086.314,1090.639,1086.275,1090.638,1086.235Zm-10.478-11.341-.193-.174-.283-.256-7.428-6.719.039-.01a6.406,6.406,0,0,1,5.808,1.462h0a6.409,6.409,0,0,1,1.783,2.715h0q.079.236.141.481a6.358,6.358,0,0,1,.135,2.459Zm-5.478-11.924a.646.646,0,0,0,.56-.324l1.182-2.059a.645.645,0,0,1,.713-.306q.495.12.978.276l.044.014a.643.643,0,0,1,.3.2h0a.645.645,0,0,1,.15.434l-.068,2.2-.005.173a.646.646,0,0,0,.348.593,11.106,11.106,0,0,1,1.143.681.645.645,0,0,0,.687.024l2.055-1.193a.645.645,0,0,1,.769.09l.009.009q.379.361.732.752l.015.018a.645.645,0,0,1,.089.691.661.661,0,0,1-.035.065l-1.172,1.893-.078.125a.646.646,0,0,0,.005.688,10.943,10.943,0,0,1,.586,1.034l.063.129a.645.645,0,0,0,.582.365h0l2.372-.006h0a.646.646,0,0,1,.589.38h0a.646.646,0,0,1,.031.083c.1.341.187.683.26,1.031a.646.646,0,0,1-.326.7l-.057.031-2.033,1.092a.647.647,0,0,0-.077.048.656.656,0,0,0-.09.08.645.645,0,0,0-.173.47,10.885,10.885,0,0,1-.009,1.19q0,.071-.01.142a.645.645,0,0,0,.323.608l1.885,1.082.174.1a.646.646,0,0,1,.306.713q-.126.517-.29,1.022a.63.63,0,0,1-.025.065.646.646,0,0,1-.589.38h-.02l-1.892-.058-.153-.139-3.761-3.4c0-.013,0-.026.006-.039a7.058,7.058,0,0,0-5.259-8h0a7,7,0,0,0-1.7-.209,7.082,7.082,0,0,0-1.885.257l-.224-.2-1.334-1.206.01-.036a6.86,6.86,0,0,0-.625-5.236,10.59,10.59,0,0,1,1.118-.293.645.645,0,0,1,.134-.014.638.638,0,0,1,.183.027.646.646,0,0,1,.386.314l1.039,1.934.084.155a.646.646,0,0,0,.568.34h.031q.259-.012.517-.012.41,0,.815.03Zm-.875,17.412a6.4,6.4,0,0,1-2.051-.336h0a6.41,6.41,0,0,1-2.706-1.779h0a6.43,6.43,0,0,1-1.47-5.817h0l.01-.039,6.719,7.428.256.283.174.193-.039.006A6.4,6.4,0,0,1,1073.807,1080.382Zm4.053,7.067a.627.627,0,0,1-.083.031c-.341.1-.683.187-1.031.261a.646.646,0,0,1-.7-.327l-.069-.129-.014-.027-1.039-1.934a.645.645,0,0,0-.568-.34h-.03l-.163.006q-.177.006-.354.006-.41,0-.815-.03l-.048,0a.645.645,0,0,0-.541.294l-.019.03-1.12,1.952-.026.045-.036.063a.644.644,0,0,1-.713.306q-.424-.1-.84-.233h0l-.18-.057a.646.646,0,0,1-.445-.634l.073-2.375a.646.646,0,0,0-.348-.593l-.147-.078a11.11,11.11,0,0,1-1-.6.646.646,0,0,0-.687-.024l-2.055,1.193a.645.645,0,0,1-.738-.063l-.031-.027q-.245-.233-.479-.478-.133-.139-.262-.282a.646.646,0,0,1-.069-.773l1.249-2.019a.646.646,0,0,0,0-.688,10.865,10.865,0,0,1-.649-1.163.647.647,0,0,0-.582-.365h-.2l-2.178.005h0a.646.646,0,0,1-.62-.464l-.007-.026c-.1-.332-.181-.666-.253-1.005a.646.646,0,0,1,.326-.7l2.09-1.122a.645.645,0,0,0,.34-.6,10.976,10.976,0,0,1,.018-1.332.646.646,0,0,0-.323-.608l-.174-.1-1.885-1.082a.646.646,0,0,1-.306-.713q.09-.368.2-.73a6.944,6.944,0,0,0,5.243.627l.036-.01,1.206,1.333.2.224a7.024,7.024,0,0,0-.053,3.555h0l.014.056a7.045,7.045,0,0,0,7.992,5.231l.039-.006,3.084,3.41.148.163.006,2.364a.646.646,0,0,1-.38.591Zm11.022,1.588a3.8,3.8,0,0,1-.844.638h0a3.817,3.817,0,0,1-3.172.239h0a3.789,3.789,0,0,1-1.5-1.015l-.106-.117-.773-.855-.581-.642-16.046-17.74-.034.012q-.107.04-.216.076l-.115.037q-.112.035-.226.065a6.084,6.084,0,0,1-.884.166h0a6.132,6.132,0,0,1-2.637-.281h0a5.979,5.979,0,0,1-1.052-.474,6.1,6.1,0,0,1-2.736-7.283l3.382,3.382a.69.69,0,0,0,.976,0l2.77-2.77a.69.69,0,0,0,0-.976l-3.382-3.382a6.1,6.1,0,0,1,2-.336,6.021,6.021,0,0,1,4.049,1.545,6.174,6.174,0,0,1,1.253,1.561h0a6.132,6.132,0,0,1,.46,1.027h0a5.983,5.983,0,0,1,.286,2.6v0a6.055,6.055,0,0,1-.173.911c-.02.075-.042.15-.065.225q-.017.057-.037.115-.036.108-.076.216l-.012.034,19.236,17.4.117.106a3.785,3.785,0,0,1,1.015,1.5,3.813,3.813,0,0,1-.1,2.908q-.062.136-.135.268A3.809,3.809,0,0,1,1088.882,1089.037Zm-12.922-1.779-1.039-1.934a.645.645,0,0,0-.568-.34h-.03l-.163.006.009.016,1.123,2.09.021.037.011.018.005.009.012.018.006.008.01.015.009.013a.894.894,0,0,0,.058.071h.55Zm-10.1-17.713-.034.012q-.107.04-.216.076l-.115.037.051.056.018.02.043.048.035.038.477.527.047.053.025.027.025.027.039.043.037.041.077.085.027.03.08.089.741.82-.06.215c-.014.051-.028.1-.04.153l.46.508.01-.039,6.719,7.428.117-.019.22-.038.175.193.171.189.195.215.192.212,2.028,2.242.109.121.178.2.166.184.112.123.33.365.109.12.113.125.168.186.221.244.109.12.108.119.106.118.053.058.074.082.23.255.075.083.28.31.087.1.106.117.047.052.094.1.092.1.01.011.068.075.449.5.118.13.121.134.074.082.074.082.147.162h.477Z" transform="translate(-92.964 -26.591)" fill="#ddd"/>
          <path id="Path_33" data-name="Path 33" d="M2583.28,2579.085a.725.725,0,0,0-.224-.035h-3.116a.724.724,0,0,0-.47.172.707.707,0,0,0-.087.086.725.725,0,0,0-.172.47v3.116a.73.73,0,0,0,.729.729h3.116a.73.73,0,0,0,.729-.729v-3.116A.73.73,0,0,0,2583.28,2579.085Zm-.224.606a.087.087,0,0,1,.087.087v3.117a.087.087,0,0,1-.086.086h-3.117a.087.087,0,0,1-.087-.087v-3.116a.087.087,0,0,1,.087-.087Z" transform="translate(-1588.785 -1522.098)" fill="#ddd"/>
          <path id="Path_34" data-name="Path 34" d="M1733.826,1185.227a1.277,1.277,0,0,0-.474-.472l-1.579-.907-.48-.276a0,0,0,0,1,0,0,11.655,11.655,0,0,0,.021-1.381c0-.01,0-.02,0-.029a0,0,0,0,1,0,0l.089-.048,2-1.075c.037-.02.073-.042.108-.065a1.27,1.27,0,0,0,.342-.336,1.306,1.306,0,0,0,.109-.191,1.278,1.278,0,0,0,.092-.811c-.077-.361-.169-.723-.273-1.077a1.288,1.288,0,0,0-1.236-.925h0l-2.145.005h-.231a11.686,11.686,0,0,0-.686-1.229v0a0,0,0,0,1,0,0l1.208-1.952.042-.067a1.288,1.288,0,0,0-.139-1.541c-.092-.1-.186-.2-.281-.3-.161-.168-.326-.333-.494-.493a1.288,1.288,0,0,0-1.534-.18l-2.055,1.193h0c-.238-.162-.484-.316-.735-.461q-.234-.135-.474-.26a0,0,0,0,1,0,0l.073-2.375a1.275,1.275,0,0,0-.173-.686c-.018-.032-.038-.063-.06-.094a1.277,1.277,0,0,0-.655-.485c-.351-.114-.71-.216-1.068-.3a1.286,1.286,0,0,0-1.421.61l-1.182,2.059a0,0,0,0,1,0,0c-.286-.021-.577-.032-.863-.032-.111,0-.224,0-.336,0l-.211.008a0,0,0,0,1,0,0l-1.123-2.09-.021-.037a1.287,1.287,0,0,0-1.382-.614,10.963,10.963,0,0,0-1.251.337l-.189.087-.08.037-.3.136-.067.031.34.607q.153.274.277.557h0a6.2,6.2,0,0,1,.28,4.223l-.11.385.3.268,0,0,1.059.958.494.447.261.236.126-.035.214-.059.154-.041a6.436,6.436,0,0,1,1.56-.193h.2l.065,0,.083,0,.08,0h.022l.045,0,.044,0,.068.006.075.008h0l.039,0,.038,0,.035,0,.062.008h.007l.083.012.069.01.028,0,.067.011h.008l.074.014.008,0,.078.015.071.015.032.007.064.014.064.015.165.042.041.011.031.009.04.011.134.04.059.019.007,0,.043.014.044.015q.08.027.16.057l.058.022.008,0,.045.018.027.011.045.018.121.051.052.022.015.007.052.024.119.056.038.018.083.042.054.028q.093.048.185.1l.031.017q.105.06.209.124l.057.036q.113.071.223.148l.038.027.029.021.059.043.061.045.05.038.037.029q.063.048.124.1l.048.04.063.053q.094.08.185.165l.049.046q.069.065.136.132l.051.052,0,0,.054.057.045.048.061.067.006.007.007.007.057.064c.042.048.083.1.124.146l.06.074.056.071.006.007.055.072,0,0,.056.076c.033.045.065.091.1.138l0,.007.019.028.043.065.053.081.05.079,0,0,.048.079,0,.008.045.077.048.084.044.081c.024.044.047.089.07.134l.019.037.006.011.019.039c.014.029.028.058.042.088l.021.044.015.034.025.056q.022.05.044.1l.015.035q.021.048.04.1l.016.04c.014.036.028.073.042.11l.022.061.018.05q.037.105.07.212l.016.052.009.032c.011.036.021.073.031.109s.024.088.035.133a6.367,6.367,0,0,1,.13,2.5l-.006.04q-.009.059-.019.117l-.038.219-.022.129.262.237,1.289,1.167,2.625,2.374.175.158.17.005h0l.066,0,.429.013,1.463.045h.04a1.285,1.285,0,0,0,1.224-.889c.114-.351.216-.71.3-1.068a1.287,1.287,0,0,0-.136-.949Zm-.778,1.819a.645.645,0,0,1-.614.445h-.02l-1.892-.058-3.439-3.11-.476-.43a7.053,7.053,0,0,0-8.836-7.993l-1.078-.975-.479-.434a6.861,6.861,0,0,0-.615-5.271,10.529,10.529,0,0,1,1.118-.293.645.645,0,0,1,.7.327l.083.155,1.039,1.934a.646.646,0,0,0,.568.34h.031q.259-.012.517-.012.41,0,.815.03l.048,0a.645.645,0,0,0,.541-.294l.019-.03,1.12-1.952.062-.107a.646.646,0,0,1,.56-.325.654.654,0,0,1,.153.018q.517.126,1.022.291a.646.646,0,0,1,.445.634l-.073,2.375a.645.645,0,0,0,.348.593l.147.078a11.146,11.146,0,0,1,1,.6.645.645,0,0,0,.687.024l2.055-1.193a.645.645,0,0,1,.769.09q.245.233.479.479.133.139.262.282a.646.646,0,0,1,.069.773l-1.25,2.019a.645.645,0,0,0,.005.688,10.963,10.963,0,0,1,.649,1.163.646.646,0,0,0,.582.365h0l2.372-.006h0a.646.646,0,0,1,.62.464l.007.026c.1.333.181.666.253,1.005a.646.646,0,0,1-.326.7l-2.09,1.123a.645.645,0,0,0-.34.6,10.924,10.924,0,0,1-.018,1.332.646.646,0,0,0,.323.608l.174.1,1.885,1.082a.646.646,0,0,1,.306.713Q1733.213,1186.542,1733.049,1187.046Z" transform="translate(-739.273 -135.794)" fill="#333"/>
          <path id="Path_35" data-name="Path 35" d="M1185.458,1730.295l.014.027h.169A.638.638,0,0,1,1185.458,1730.295Zm2.448-2.837v-.644l-.165-.183-.017-.019-3.215-3.554-.237-.262-.128.022-.22.038-.117.019-.039.006a6.4,6.4,0,0,1-.931.068h-.146l-.064,0h-.036l-.048,0h-.023l-.043,0-.037,0-.027,0-.05,0h-.01l-.058,0-.061-.006-.075-.007-.075-.008-.074-.009-.074-.01-.07-.01h-.009l-.068-.011-.067-.011-.011,0-.045-.008q-.129-.024-.257-.053l-.055-.013-.062-.015-.034-.009-.05-.013-.068-.018-.054-.015-.034-.01-.017,0-.053-.016-.073-.022-.095-.031-.026-.009-.068-.023h0l-.061-.022-.118-.044-.041-.016-.134-.055-.06-.025q-.232-.1-.455-.218l-.04-.021q-.1-.055-.2-.115l-.056-.033-.048-.029-.065-.04-.054-.034-.055-.035-.054-.036-.054-.037-.054-.037-.053-.038-.105-.077-.052-.039-.052-.04-.051-.04-.051-.041-.05-.041-.05-.042-.05-.042-.1-.087h0l-.047-.043q-.072-.066-.142-.135l-.046-.046-.046-.046-.046-.047-.047-.049-.087-.095-.072-.081-.029-.033-.012-.014-.032-.038c-.05-.059-.1-.12-.147-.181l-.036-.046-.032-.042q-.059-.077-.115-.157l-.026-.037-.027-.039-.037-.054q-.067-.1-.13-.2l-.029-.047c-.022-.036-.044-.073-.065-.109l-.027-.047q-.074-.13-.142-.264l-.021-.043-.007-.014-.022-.045-.03-.063-.021-.046q-.05-.108-.1-.219l-.023-.055c-.015-.037-.03-.074-.044-.112l-.02-.054q-.033-.086-.063-.174l-.033-.1c-.014-.044-.028-.087-.041-.131l-.013-.045-.015-.051-.015-.054q-.02-.072-.039-.145a6.416,6.416,0,0,1-.005-3.129c.013-.051.026-.1.04-.153l.06-.214.035-.126-.237-.262-1.057-1.169-.346-.383,0,0-.268-.3-.384.109a6.3,6.3,0,0,1-4.259-.295q-.271-.119-.531-.264l-.7-.39-.018.06-.1.325-.025.082-.09.3c-.076.253-.146.51-.208.764a1.288,1.288,0,0,0,.606,1.419l0,0,2.059,1.182a0,0,0,0,1,0,0q-.007.1-.013.191a11.641,11.641,0,0,0-.007,1.219,0,0,0,0,1,0,0l-2.09,1.123a1.287,1.287,0,0,0-.65,1.4c.077.361.169.723.272,1.077a1.277,1.277,0,0,0,.465.669,1.3,1.3,0,0,0,.125.083,1.278,1.278,0,0,0,.646.174h0l2.372-.006h0q.113.236.239.469c.14.26.29.515.449.763a0,0,0,0,1,0,0l-1.25,2.019a1.288,1.288,0,0,0,.139,1.541c.24.266.493.526.753.774h0l.022.021a1.288,1.288,0,0,0,1.534.18l2.055-1.193h0a11.744,11.744,0,0,0,1.209.721,0,0,0,0,1,0,0l-.006.206-.067,2.169a1.28,1.28,0,0,0,.233.78,1.3,1.3,0,0,0,.248.265,1.251,1.251,0,0,0,.162.11,1.3,1.3,0,0,0,.246.109c.351.114.71.216,1.068.3a1.29,1.29,0,0,0,1.366-.523c.01-.015.02-.03.03-.045l.026-.043,1.113-1.939.069-.119a0,0,0,0,1,0,0l.029,0c.277.02.557.03.834.03.182,0,.366,0,.547-.013l0,0,.255.475.867,1.615.021.037a1.287,1.287,0,0,0,1.382.614c.361-.077.723-.169,1.077-.272a1.286,1.286,0,0,0,.372-.177,1.26,1.26,0,0,0,.192-.164,1.279,1.279,0,0,0,.106-.125l.027-.038a1.278,1.278,0,0,0,.228-.736Zm-2.131,2.849a.65.65,0,0,1-.135.014.638.638,0,0,1-.183-.027.644.644,0,0,1-.386-.314l-1.039-1.934-.084-.156a.646.646,0,0,0-.568-.34h-.031q-.259.012-.517.012-.409,0-.815-.03l-.048,0a.646.646,0,0,0-.56.324l-1.182,2.059a.645.645,0,0,1-.713.306q-.495-.12-.978-.276l-.044-.014a.646.646,0,0,1-.445-.634l.073-2.375a.647.647,0,0,0-.348-.593,11.165,11.165,0,0,1-1.143-.681.642.642,0,0,0-.363-.112.649.649,0,0,0-.325.087l-2.055,1.193a.645.645,0,0,1-.769-.09l-.009-.009q-.379-.361-.732-.752a.645.645,0,0,1-.069-.773l1.172-1.893.078-.125a.646.646,0,0,0,0-.688,10.864,10.864,0,0,1-.586-1.034l-.063-.129a.646.646,0,0,0-.582-.365h0l-2.372.006h0a.646.646,0,0,1-.62-.464c-.1-.341-.187-.683-.261-1.031a.646.646,0,0,1,.327-.7l.057-.031,2.032-1.092a.623.623,0,0,0,.077-.048.652.652,0,0,0,.09-.08.645.645,0,0,0,.173-.47,10.9,10.9,0,0,1,.018-1.332.646.646,0,0,0-.323-.608l-1.885-1.082-.174-.1a.646.646,0,0,1-.306-.713q.09-.368.2-.73a6.941,6.941,0,0,0,5.279.617l.434.48.974,1.077a7.051,7.051,0,0,0,7.992,8.836l.43.476,2.8,3.1.006,2.364a.646.646,0,0,1-.463.622C1186.465,1730.147,1186.122,1730.233,1185.775,1730.307Zm-.317-.013.014.027h.169A.638.638,0,0,1,1185.458,1730.295Z" transform="translate(-202.461 -669.628)" fill="#333"/>
          <path id="Path_36" data-name="Path 36" d="M1063.576,1059.174c0-.018,0-.036,0-.053a4.433,4.433,0,0,0-1.077-2.741,4.479,4.479,0,0,0-.384-.392l-3.562-3.222-.521-.471-.367-.332-4.09-3.7-.191-.173-.284-.257-1.378-1.247-.25-.226-.182-.165-.316-.286-.051-.046-.135-.122-.308-.279-.228-.206-.018-.016-.366-.331-.6-.544-.119-.108-.119-.107-.118-.107-.355-.321-.185-.167-.616-.557-.121-.109-1.1-.995-.11-.1-.482-.436-.1-.094-.134-.121-.268-.243-.1-.088-.143-.129-.284-.257-1.838-1.663a6.766,6.766,0,0,0,.257-1.234,6.614,6.614,0,0,0-.019-1.626,6.757,6.757,0,0,0-.97-2.667q-.079-.127-.165-.25l-.015-.021a6.8,6.8,0,0,0-2.32-2.081,6.642,6.642,0,0,0-1.514-.595,6.779,6.779,0,0,0-3.891.161l-.968.336.469.469.255.255,3.382,3.382,0,0a.049.049,0,0,1,0,.067l-2.77,2.769a.048.048,0,0,1-.067,0l-4.108-4.108-.336.968a6.819,6.819,0,0,0-.352,1.638,6.642,6.642,0,0,0,.055,1.6,6.79,6.79,0,0,0,2.765,4.455q.137.1.278.188.22.141.451.264a6.652,6.652,0,0,0,1.5.578,6.783,6.783,0,0,0,1.658.2,6.707,6.707,0,0,0,1.963-.292l1.662,1.838.256.283.46.508h0l.028.031.093.1.492.544.087.1,1.229,1.359.09.1.458.506.1.116.23.254.232.256.069.077.165.182,1.375,1.52.112.124.321.355.123.136.986,1.09.123.136.37.409.257.284.173.191,3.389,3.746.322.356.47.519,2.12,2.344.58.642.844.933a4.47,4.47,0,0,0,.393.385,4.449,4.449,0,0,0,5.221.431h0a4.494,4.494,0,0,0,1.481-1.481q.08-.131.151-.268a4.446,4.446,0,0,0,.2-.431q.041-.1.076-.211a4.447,4.447,0,0,0,.226-1.52Zm-1.239,2.162a3.8,3.8,0,0,1-6.03.5l-.455-.5-.58-.642-16.034-17.727-.436-.482a6.085,6.085,0,0,1-2.156.395,6.082,6.082,0,0,1-5.744-8.076l3.382,3.382a.69.69,0,0,0,.946.028l.03-.028,2.77-2.77.028-.03a.69.69,0,0,0-.028-.946l-3.382-3.382a6.1,6.1,0,0,1,2-.336,6.082,6.082,0,0,1,5.685,8.236l.482.436,18.872,17.07a3.8,3.8,0,0,1,.984,4.231A3.766,3.766,0,0,1,1062.337,1061.336Z" transform="translate(-66.111 0.469)" fill="#333"/>
          <path id="Path_37" data-name="Path 37" d="M2556.689,2552.495a.73.73,0,0,0-.694-.5h-3.116a.73.73,0,0,0-.729.729v3.116a.721.721,0,0,0,.1.366.731.731,0,0,0,.406.328.715.715,0,0,0,.224.035H2556a.723.723,0,0,0,.47-.173.73.73,0,0,0,.16-.19.721.721,0,0,0,.1-.366v-3.116A.725.725,0,0,0,2556.689,2552.495Zm-3.9.224a.088.088,0,0,1,.086-.086H2556a.087.087,0,0,1,.087.087v3.116a.087.087,0,0,1-.087.087h-3.116a.087.087,0,0,1-.087-.087Z" transform="translate(-1562.195 -1495.507)" fill="#333"/>
          <g id="Group_8" data-name="Group 8" transform="translate(962.375 1059.121)">
            <path id="Path_38" data-name="Path 38" d="M1146.69,2794.73l.58.642h-24a.321.321,0,1,1,0-.642Z" transform="translate(-1120.164 -2793.157)" fill="#333"/>
            <path id="Path_39" data-name="Path 39" d="M2904.122,2795.051a.321.321,0,0,1-.321.321h-5.211a3.753,3.753,0,0,0,.33-.642h4.881A.321.321,0,0,1,2904.122,2795.051Z" transform="translate(-2864.999 -2793.157)" fill="#333"/>
            <path id="Path_40" data-name="Path 40" d="M964.158,2795.372H962.7a.321.321,0,1,1,0-.642h1.462a.321.321,0,1,1,0,.642Z" transform="translate(-962.375 -2793.157)" fill="#333"/>
            <path id="Path_41" data-name="Path 41" d="M1287.658,2704.7H1286.2a.321.321,0,1,1,0-.642h1.462a.321.321,0,1,1,0,.642Z" transform="translate(-1280.263 -2704.06)" fill="#333"/>
            <path id="Path_42" data-name="Path 42" d="M1127.078,2704.7h-1.462a.321.321,0,1,1,0-.642h1.462a.321.321,0,1,1,0,.642Z" transform="translate(-1122.469 -2704.06)" fill="#333"/>
            <path id="Path_43" data-name="Path 43" d="M2934.757,2704.7h-1.462a.321.321,0,0,1,0-.642h1.462a.321.321,0,1,1,0,.642Z" transform="translate(-2898.787 -2704.06)" fill="#333"/>
            <path id="Path_44" data-name="Path 44" d="M3095.348,2704.7h-1.462a.321.321,0,0,1,0-.642h1.462a.321.321,0,1,1,0,.642Z" transform="translate(-3056.592 -2704.06)" fill="#333"/>
            <path id="Path_45" data-name="Path 45" d="M3258.558,2795.372H3257.1a.321.321,0,0,1,0-.642h1.462a.321.321,0,1,1,0,.642Z" transform="translate(-3216.971 -2793.157)" fill="#333"/>
          </g>
        </g>
      </g>
    </g>
    <text id="TTWEJ" transform="translate(134 437)" fill="#c800a1" font-size="29" font-family="Montserrat-SemiBold, Montserrat" font-weight="600"><tspan x="0" y="0">TT</tspan><tspan y="0" fill="#000">WEJ</tspan></text>
  </g>
</svg>
