<svg xmlns="http://www.w3.org/2000/svg" xml:space="preserve" width="24" height="24" id="whatsapp">
  <path d="M12 .5C5.7.5.5 5.7.5 12c0 2.4.7 4.6 2 6.5l-1.3 3.9c-.1.2 0 .4.1.5.2.1.4.2.6.1l4-1.3c1.8 1.2 4 1.8 6.1 1.8 6.3 0 11.5-5.2 11.5-11.5S18.3.5 12 .5zm6.9 16.2c-.3.9-1.5 1.7-2.5 1.9-.2 0-.4.1-.7.1-.8 0-1.8-.3-3.4-.9-2-.8-4-2.6-5.6-4.9l-.1-.1C6 12 5.1 10.6 5.1 9.1c0-1.7.9-2.6 1.2-3 .4-.4.9-.6 1.5-.6h.4c.5 0 .8.2 1.1.8l.2.4c.3.7.7 1.8.8 2 .2.4.2.7 0 1-.1.2-.2.4-.4.6-.1.1-.2.2-.2.3l-.3.3v.1c.3.5.9 1.4 1.7 2.1 1.1 1 1.9 1.3 2.3 1.5h.1c.1 0 .2.1.2 0 .2-.2.4-.6.7-.9l.1-.1c.3-.4.7-.5.9-.5.1 0 .3 0 .4.1.1 0 .3.1 2.2 1.1l.2.1c.3.1.5.2.6.5.4.2.3 1.1.1 1.8z"></path>
</svg>
